<svg width="301" height="202" viewBox="0 0 301 202" fill="none" xmlns="http://www.w3.org/2000/svg">
<rect x="19.5019" y="197" width="21.002" height="5" fill="#DF3333"/>
<rect x="139.513" y="197" width="19.5019" height="5" fill="#B5B5B5"/>
<rect x="60.0057" y="197" width="19.5019" height="5" fill="#D54283"/>
<rect x="178.517" y="197" width="21.002" height="5" fill="#A769FF"/>
<rect x="100.51" y="197" width="19.5019" height="5" fill="#FFAC4F"/>
<rect x="219.021" y="197" width="19.5019" height="5" fill="#6497B5"/>
<path d="M258.025 197H278.277V202H258.025V197Z" fill="#FF91BB"/>
<line y1="62.5" x2="298.529" y2="62.5" stroke="#A7A7A7"/>
<line y1="22.5" x2="298.529" y2="22.5" stroke="#A7A7A7"/>
<line y1="102.5" x2="298.529" y2="102.5" stroke="#A7A7A7"/>
<line y1="141.5" x2="298.529" y2="141.5" stroke="#A7A7A7"/>
<line y1="-0.5" x2="298.155" y2="-0.5" transform="matrix(0.999996 -0.00264999 0.00227806 0.999997 0.34729 182.15)" stroke="#A7A7A7"/>
<line y1="82" x2="298.529" y2="82" stroke="#6C6C6C" stroke-width="2"/>
<line y1="41" x2="298.529" y2="41" stroke="#6C6C6C" stroke-width="2"/>
<line y1="1" x2="298.529" y2="1" stroke="#6C6C6C" stroke-width="2"/>
<line y1="122" x2="298.529" y2="122" stroke="#6C6C6C" stroke-width="2"/>
<line y1="161" x2="298.529" y2="161" stroke="#6C6C6C" stroke-width="2"/>
<line y1="201" x2="300.029" y2="201" stroke="black" stroke-width="2"/>
</svg>
