<svg width="31" height="29" viewBox="0 0 31 29" fill="none" xmlns="http://www.w3.org/2000/svg">
<path d="M16.1047 5.14646C15.6856 5.53299 15.6463 6.14378 15.9898 6.57233L16.093 6.68438L23.1854 13.4125L5.0375 13.4125C4.39547 13.4125 3.875 13.8994 3.875 14.5C3.875 15.0545 4.31848 15.512 4.89168 15.5791L5.0375 15.5875H23.1854L16.093 22.3157C15.6798 22.7078 15.6498 23.319 15.9998 23.7429L16.1047 23.8536C16.5238 24.2402 17.1772 24.2683 17.6303 23.9408L17.7487 23.8427L26.7903 15.2635C27.1994 14.8754 27.2335 14.2715 26.8926 13.8474L26.7903 13.7365L17.7487 5.15737C17.2979 4.72967 16.5619 4.72479 16.1047 5.14646Z" fill="#2688EB"/>
</svg>
